<?xml version="1.0" encoding="UTF-8" standalone="no"?>
<!-- Created with Inkscape (http://www.inkscape.org/) -->

<svg
   version="1.1"
   id="svg1"
   width="191.54266"
   height="240.32268"
   viewBox="0 0 191.54266 240.32268"
   xmlns="http://www.w3.org/2000/svg"
   xmlns:svg="http://www.w3.org/2000/svg">
  <defs
     id="defs1" />
  <g
     id="g1">
    <path
       id="path1"
       d="M 2.98883,0 C 2.98883,1.6507 1.6507,2.98883 0,2.98883 -1.6507,2.98883 -2.98883,1.6507 -2.98883,0 c 0,-1.6507 1.33813,-2.98883 2.98883,-2.98883 1.6507,0 2.98883,1.33813 2.98883,2.98883 z"
       style="fill:#000000;fill-opacity:1;fill-rule:nonzero;stroke:none"
       transform="matrix(1.3333333,0,0,-1.3333333,17.958667,175.504)" />
    <path
       id="path2"
       d="m 2.98883,56.69362 c 0,1.65069 -1.33813,2.98883 -2.98883,2.98883 -1.6507,0 -2.98883,-1.33814 -2.98883,-2.98883 0,-1.65071 1.33813,-2.98883 2.98883,-2.98883 1.6507,0 2.98883,1.33812 2.98883,2.98883 z"
       style="fill:#000000;fill-opacity:1;fill-rule:nonzero;stroke:none"
       transform="matrix(1.3333333,0,0,-1.3333333,17.958667,175.504)" />
    <path
       id="path3"
       d="m 2.98883,113.38724 c 0,1.65069 -1.33813,2.98883 -2.98883,2.98883 -1.6507,0 -2.98883,-1.33814 -2.98883,-2.98883 0,-1.65071 1.33813,-2.98884 2.98883,-2.98884 1.6507,0 2.98883,1.33813 2.98883,2.98884 z"
       style="fill:#000000;fill-opacity:1;fill-rule:nonzero;stroke:none"
       transform="matrix(1.3333333,0,0,-1.3333333,17.958667,175.504)" />
    <path
       id="path4"
       d="m 59.68245,0 c 0,1.6507 -1.33814,2.98883 -2.98883,2.98883 -1.65071,0 -2.98883,-1.33813 -2.98883,-2.98883 0,-1.6507 1.33812,-2.98883 2.98883,-2.98883 1.65069,0 2.98883,1.33813 2.98883,2.98883 z"
       style="fill:#000000;fill-opacity:1;fill-rule:nonzero;stroke:none"
       transform="matrix(1.3333333,0,0,-1.3333333,17.958667,175.504)" />
    <path
       id="path5"
       d="m 59.68245,56.69362 c 0,1.65069 -1.33814,2.98883 -2.98883,2.98883 -1.65071,0 -2.98883,-1.33814 -2.98883,-2.98883 0,-1.65071 1.33812,-2.98883 2.98883,-2.98883 1.65069,0 2.98883,1.33812 2.98883,2.98883 z"
       style="fill:#000000;fill-opacity:1;fill-rule:nonzero;stroke:none"
       transform="matrix(1.3333333,0,0,-1.3333333,17.958667,175.504)" />
    <path
       id="path6"
       d="m 59.68245,113.38724 c 0,1.65069 -1.33814,2.98883 -2.98883,2.98883 -1.65071,0 -2.98883,-1.33814 -2.98883,-2.98883 0,-1.65071 1.33812,-2.98884 2.98883,-2.98884 1.65069,0 2.98883,1.33813 2.98883,2.98884 z"
       style="fill:#000000;fill-opacity:1;fill-rule:nonzero;stroke:none"
       transform="matrix(1.3333333,0,0,-1.3333333,17.958667,175.504)" />
    <path
       id="path7"
       d="m 116.37607,0 c 0,1.6507 -1.33814,2.98883 -2.98883,2.98883 -1.65071,0 -2.98884,-1.33813 -2.98884,-2.98883 0,-1.6507 1.33813,-2.98883 2.98884,-2.98883 1.65069,0 2.98883,1.33813 2.98883,2.98883 z"
       style="fill:#000000;fill-opacity:1;fill-rule:nonzero;stroke:none"
       transform="matrix(1.3333333,0,0,-1.3333333,17.958667,175.504)" />
    <path
       id="path8"
       d="m 116.37607,56.69362 c 0,1.65069 -1.33814,2.98883 -2.98883,2.98883 -1.65071,0 -2.98884,-1.33814 -2.98884,-2.98883 0,-1.65071 1.33813,-2.98883 2.98884,-2.98883 1.65069,0 2.98883,1.33812 2.98883,2.98883 z"
       style="fill:#000000;fill-opacity:1;fill-rule:nonzero;stroke:none"
       transform="matrix(1.3333333,0,0,-1.3333333,17.958667,175.504)" />
    <path
       id="path9"
       d="m 116.37607,113.38724 c 0,1.65069 -1.33814,2.98883 -2.98883,2.98883 -1.65071,0 -2.98884,-1.33814 -2.98884,-2.98883 0,-1.65071 1.33813,-2.98884 2.98884,-2.98884 1.65069,0 2.98883,1.33813 2.98883,2.98884 z"
       style="fill:#000000;fill-opacity:1;fill-rule:nonzero;stroke:none"
       transform="matrix(1.3333333,0,0,-1.3333333,17.958667,175.504)" />
    <path
       id="path10"
       d="m 59.68245,56.69362 c 0,1.65069 -1.33814,2.98883 -2.98883,2.98883 -1.65071,0 -2.98883,-1.33814 -2.98883,-2.98883 0,-1.65071 1.33812,-2.98883 2.98883,-2.98883 1.65069,0 2.98883,1.33812 2.98883,2.98883 z"
       style="fill:#009900;fill-opacity:1;fill-rule:nonzero;stroke:none"
       transform="matrix(1.3333333,0,0,-1.3333333,17.958667,175.504)" />
    <path
       id="path11"
       d="M 53.50551,56.69362 H 9.95422"
       style="fill:none;stroke:#808080;stroke-width:2.98883;stroke-linecap:butt;stroke-linejoin:miter;stroke-miterlimit:10;stroke-dasharray:none;stroke-opacity:1"
       transform="matrix(1.3333333,0,0,-1.3333333,17.958667,175.504)" />
    <path
       id="path12"
       d="M 12.4884,0 4.47937,3.04881 7.17784,0 4.47937,-3.04881 Z"
       style="fill:#808080;fill-opacity:1;fill-rule:nonzero;stroke:#808080;stroke-width:2.774;stroke-linecap:butt;stroke-linejoin:miter;stroke-miterlimit:10;stroke-dasharray:none;stroke-opacity:1"
       transform="matrix(-1.3333333,0,0,1.3333333,39.87676,99.912507)" />
    <path
       id="path13"
       d="m 59.88168,56.69362 h 43.55133"
       style="fill:none;stroke:#808080;stroke-width:2.98883;stroke-linecap:butt;stroke-linejoin:miter;stroke-miterlimit:10;stroke-dasharray:none;stroke-opacity:1"
       transform="matrix(1.3333333,0,0,-1.3333333,17.958667,175.504)" />
    <path
       id="path14"
       d="M 12.4884,0 4.47937,3.04881 7.17784,0 4.47937,-3.04881 Z"
       style="fill:#808080;fill-opacity:1;fill-rule:nonzero;stroke:#808080;stroke-width:2.774;stroke-linecap:butt;stroke-linejoin:miter;stroke-miterlimit:10;stroke-dasharray:none;stroke-opacity:1"
       transform="matrix(1.3333333,0,0,-1.3333333,147.22356,99.912507)" />
    <path
       id="path15"
       d="M 56.69362,53.50551 V 9.95422"
       style="fill:none;stroke:#808080;stroke-width:2.98883;stroke-linecap:butt;stroke-linejoin:miter;stroke-miterlimit:10;stroke-dasharray:none;stroke-opacity:1"
       transform="matrix(1.3333333,0,0,-1.3333333,17.958667,175.504)" />
    <path
       id="path16"
       d="M 12.4884,0 4.47937,3.04881 7.17784,0 4.47937,-3.04881 Z"
       style="fill:#808080;fill-opacity:1;fill-rule:nonzero;stroke:#808080;stroke-width:2.774;stroke-linecap:butt;stroke-linejoin:miter;stroke-miterlimit:10;stroke-dasharray:none;stroke-opacity:1"
       transform="matrix(0,1.3333333,1.3333333,0,93.55016,153.58591)" />
    <path
       id="path17"
       d="m 56.69362,59.88168 v 43.55133"
       style="fill:none;stroke:#808080;stroke-width:2.98883;stroke-linecap:butt;stroke-linejoin:miter;stroke-miterlimit:10;stroke-dasharray:none;stroke-opacity:1"
       transform="matrix(1.3333333,0,0,-1.3333333,17.958667,175.504)" />
    <path
       id="path18"
       d="M 12.4884,0 4.47937,3.04881 7.17784,0 4.47937,-3.04881 Z"
       style="fill:#808080;fill-opacity:1;fill-rule:nonzero;stroke:#808080;stroke-width:2.774;stroke-linecap:butt;stroke-linejoin:miter;stroke-miterlimit:10;stroke-dasharray:none;stroke-opacity:1"
       transform="matrix(0,-1.3333333,-1.3333333,0,93.55016,46.239107)" />
    <path
       id="path19"
       d="M 54.43929,54.43929 7.0387,7.0387"
       style="fill:none;stroke:#808080;stroke-width:2.98883;stroke-linecap:butt;stroke-linejoin:miter;stroke-miterlimit:10;stroke-dasharray:none;stroke-opacity:1"
       transform="matrix(1.3333333,0,0,-1.3333333,17.958667,175.504)" />
    <path
       id="path20"
       d="M 12.4884,0 4.47937,3.04881 7.17784,0 4.47937,-3.04881 Z"
       style="fill:#808080;fill-opacity:1;fill-rule:nonzero;stroke:#808080;stroke-width:2.774;stroke-linecap:butt;stroke-linejoin:miter;stroke-miterlimit:10;stroke-dasharray:none;stroke-opacity:1"
       transform="matrix(-0.9428,0.9428,0.9428,0.9428,33.457107,160.00556)" />
    <path
       id="path21"
       d="M 58.9479,54.43929 106.34853,7.0387"
       style="fill:none;stroke:#808080;stroke-width:2.98883;stroke-linecap:butt;stroke-linejoin:miter;stroke-miterlimit:10;stroke-dasharray:none;stroke-opacity:1"
       transform="matrix(1.3333333,0,0,-1.3333333,17.958667,175.504)" />
    <path
       id="path22"
       d="M 12.4884,0 4.47937,3.04881 7.17784,0 4.47937,-3.04881 Z"
       style="fill:#808080;fill-opacity:1;fill-rule:nonzero;stroke:#808080;stroke-width:2.774;stroke-linecap:butt;stroke-linejoin:miter;stroke-miterlimit:10;stroke-dasharray:none;stroke-opacity:1"
       transform="matrix(0.9428,0.9428,0.9428,-0.9428,153.6432,160.00556)" />
    <path
       id="path23"
       d="M 54.43929,58.9479 7.0387,106.34853"
       style="fill:none;stroke:#808080;stroke-width:2.98883;stroke-linecap:butt;stroke-linejoin:miter;stroke-miterlimit:10;stroke-dasharray:none;stroke-opacity:1"
       transform="matrix(1.3333333,0,0,-1.3333333,17.958667,175.504)" />
    <path
       id="path24"
       d="M 12.4884,0 4.47937,3.04881 7.17784,0 4.47937,-3.04881 Z"
       style="fill:#808080;fill-opacity:1;fill-rule:nonzero;stroke:#808080;stroke-width:2.774;stroke-linecap:butt;stroke-linejoin:miter;stroke-miterlimit:10;stroke-dasharray:none;stroke-opacity:1"
       transform="matrix(-0.9428,-0.9428,-0.9428,0.9428,33.457107,39.819467)" />
    <path
       id="path25"
       d="m 58.9479,58.9479 47.40063,47.40063"
       style="fill:none;stroke:#808080;stroke-width:2.98883;stroke-linecap:butt;stroke-linejoin:miter;stroke-miterlimit:10;stroke-dasharray:none;stroke-opacity:1"
       transform="matrix(1.3333333,0,0,-1.3333333,17.958667,175.504)" />
    <path
       id="path26"
       d="M 12.4884,0 4.47937,3.04881 7.17784,0 4.47937,-3.04881 Z"
       style="fill:#808080;fill-opacity:1;fill-rule:nonzero;stroke:#808080;stroke-width:2.774;stroke-linecap:butt;stroke-linejoin:miter;stroke-miterlimit:10;stroke-dasharray:none;stroke-opacity:1"
       transform="matrix(0.9428,-0.9428,-0.9428,-0.9428,153.6432,39.819467)" />
    <path
       id="path27"
       d="m 2.3334062,-4.4310625 c 0,-0.1875 -0.011719,-0.1992187 -0.2109375,-0.1992187 -0.4453125,0.4335937 -1.078125,0.4453125 -1.35937495,0.4453125 v 0.2460937 c 0.1640625,0 0.62109375,0 1.00781245,-0.1875 v 3.55078125 c 0,0.234375 0,0.328125 -0.6914062,0.328125 H 0.80996875 V -0.001375 C 0.938875,-0.01309375 1.7943437,-0.0248125 2.0521562,-0.0248125 c 0.2109375,0 1.0898438,0.01171875 1.2421875,0.0234375 V -0.24746875 H 3.0365312 c -0.703125,0 -0.703125,-0.09375 -0.703125,-0.328125 z m 0,0"
       style="fill:#0000ff;fill-opacity:1;fill-rule:nonzero;stroke:none"
       aria-label="1"
       transform="matrix(1.3333333,0,0,1.3333333,15.310667,186.18933)" />
    <path
       id="path28"
       d="M 0,0 H 7.942"
       style="fill:none;stroke:#0000ff;stroke-width:0.398;stroke-linecap:butt;stroke-linejoin:miter;stroke-miterlimit:10;stroke-dasharray:none;stroke-opacity:1"
       transform="matrix(1.3333333,0,0,-1.3333333,12.662667,188.09867)" />
    <path
       id="path29"
       d="m 1.8994844,-2.3320312 c 0.5507812,0 0.9375,0.375 0.9375,1.125 0,0.86718745 -0.5039063,1.12499995 -0.9023438,1.12499995 -0.28125,0 -0.890625,-0.08203125 -1.18359372,-0.4921875 C 1.0791719,-0.5859375 1.1494844,-0.8203125 1.1494844,-0.9609375 c 0,-0.2226562 -0.16406252,-0.3867187 -0.38671877,-0.3867187 -0.1875,0 -0.38671875,0.1171875 -0.38671875,0.4101562 0,0.65625 0.72656252,1.078125 1.57031252,1.078125 0.9726562,0 1.640625,-0.64453125 1.640625,-1.3476562 0,-0.5390625 -0.4453125,-1.0898438 -1.21875,-1.2421875 0.7382812,-0.2695313 0.9960937,-0.796875 0.9960937,-1.21875 0,-0.5507813 -0.6328125,-0.9609375 -1.40625,-0.9609375 -0.7734375,0 -1.35937497,0.375 -1.35937497,0.9375 0,0.234375 0.15234375,0.3632812 0.36328125,0.3632812 0.21093752,0 0.35156252,-0.1640625 0.35156252,-0.3515625 0,-0.1992187 -0.140625,-0.3515625 -0.35156252,-0.3632812 0.23437502,-0.3046875 0.71484372,-0.3867188 0.97265622,-0.3867188 0.3164063,0 0.7617188,0.1523438 0.7617188,0.7617188 0,0.2929687 -0.1054688,0.609375 -0.28125,0.8320312 -0.234375,0.2578125 -0.421875,0.28125 -0.7734375,0.2929688 -0.1757813,0.023437 -0.1875,0.023437 -0.2226563,0.023437 -0.011719,0 -0.070312,0.011719 -0.070312,0.09375 0,0.09375 0.058594,0.09375 0.1757813,0.09375 z m 3.1142578,0.046875 c 0,-0.5625 0.046875,-1.078125 0.3164062,-1.5117188 0.234375,-0.375 0.609375,-0.6328125 1.0546875,-0.6328125 0.2109375,0 0.4921875,0.058594 0.6328125,0.2460938 -0.1757812,0.011719 -0.3164062,0.1289062 -0.3164062,0.3398437 0,0.1640625 0.1171875,0.328125 0.328125,0.328125 0.1992187,0 0.328125,-0.140625 0.328125,-0.3515625 0,-0.3984375 -0.2929688,-0.7617187 -0.984375,-0.7617187 -0.9960938,0 -2.0273438,0.9140625 -2.0273438,2.4140625 0,1.80468745 0.8554688,2.3554687 1.6171875,2.3554687 0.8554688,0 1.59375,-0.64453125 1.59375,-1.5585937 0,-0.890625 -0.703125,-1.546875 -1.5234375,-1.546875 -0.5507812,0 -0.8671875,0.375 -1.0195312,0.6796875 z m 0.9492187,2.20312495 c -0.3515625,0 -0.6210937,-0.19921875 -0.7617187,-0.515625 C 5.0957734,-0.796875 5.0371797,-1.1484375 5.0371797,-1.5703125 c 0,-0.6796875 0.4101562,-1.1953125 0.9609375,-1.1953125 0.328125,0 0.5390625,0.1171875 0.7148437,0.3867188 0.1640625,0.2578125 0.1757813,0.5507812 0.1757813,0.9609375 0,0.3984375 0,0.6914062 -0.1875,0.96093745 -0.1757813,0.24609375 -0.3984375,0.375 -0.7382813,0.375 z m 0,0"
       style="fill:#0000ff;fill-opacity:1;fill-rule:nonzero;stroke:none"
       aria-label="36"
       transform="matrix(1.3333333,0,0,1.3333333,12.662667,196)" />
    <path
       id="path30"
       d="m 2.3334062,-4.4304453 c 0,-0.1875 -0.011719,-0.1992188 -0.2109375,-0.1992188 -0.4453125,0.4335938 -1.078125,0.4453125 -1.35937495,0.4453125 v 0.2460938 c 0.1640625,0 0.62109375,0 1.00781245,-0.1875 v 3.55078124 c 0,0.234375 0,0.328125 -0.6914062,0.328125 H 0.80996875 V -7.578125e-4 C 0.938875,-0.01247656 1.7943437,-0.02419531 2.0521562,-0.02419531 c 0.2109375,0 1.0898438,0.01171875 1.2421875,0.0234374975 V -0.24685156 H 3.0365312 c -0.703125,0 -0.703125,-0.09375 -0.703125,-0.328125 z m 0,0"
       style="fill:#0000ff;fill-opacity:1;fill-rule:nonzero;stroke:none"
       aria-label="1"
       transform="matrix(1.3333333,0,0,1.3333333,15.310667,110.59867)" />
    <path
       id="path31"
       d="M 0,0 H 3.971"
       style="fill:none;stroke:#0000ff;stroke-width:0.398;stroke-linecap:butt;stroke-linejoin:miter;stroke-miterlimit:10;stroke-dasharray:none;stroke-opacity:1"
       transform="matrix(1.3333333,0,0,-1.3333333,15.310667,112.508)" />
    <path
       id="path32"
       d="m 2.9193437,-2.0736016 c 0,1.72265629 -0.8554687,1.99218754 -1.2773437,1.99218754 -0.1523438,0 -0.5273438,-0.01171875 -0.71484375,-0.234375 0.29296875,-0.0234375 0.30468745,-0.2578125 0.30468745,-0.328125 0,-0.17578125 -0.1171875,-0.328125 -0.32812495,-0.328125 -0.19921875,0 -0.328125,0.140625 -0.328125,0.33984375 0,0.48046875 0.3984375,0.7734375 1.06640625,0.7734375 1.0078125,0 1.9453125,-0.9375 1.9453125,-2.43749999 0,-1.7226563 -0.7734375,-2.3320313 -1.5820313,-2.3320313 -0.234375,0 -0.7148437,0.035156 -1.1132812,0.421875 -0.234375,0.234375 -0.515625,0.5039063 -0.515625,1.1367188 0,0.8789062 0.703125,1.5351562 1.5234375,1.5351562 0.5507812,0 0.8554687,-0.3632812 1.0195312,-0.6796875 z m -0.984375,0.3398438 c -0.2695312,0 -0.5273437,-0.082031 -0.7265625,-0.4101563 -0.1640625,-0.2578125 -0.1640625,-0.5507812 -0.1640625,-0.9257812 0,-0.4101563 0,-0.6914063 0.2109375,-0.9726563 0.1640625,-0.234375 0.3867188,-0.3867187 0.75,-0.3867187 0.3632813,0 0.5742188,0.2226562 0.6796875,0.4101562 0.1875,0.2929688 0.2109375,0.7734375 0.2109375,1.0195313 0,0.9023437 -0.5273437,1.265625 -0.9609375,1.265625 z m 0,0"
       style="fill:#0000ff;fill-opacity:1;fill-rule:nonzero;stroke:none"
       aria-label="9"
       transform="matrix(1.3333333,0,0,1.3333333,15.310667,120.40933)" />
    <path
       id="path33"
       d="m 2.3334062,-4.4298281 c 0,-0.1875 -0.011719,-0.1992188 -0.2109375,-0.1992188 -0.4453125,0.4335938 -1.078125,0.4453125 -1.35937495,0.4453125 v 0.2460938 c 0.1640625,0 0.62109375,0 1.00781245,-0.1875 v 3.55078123 c 0,0.234375 0,0.328125 -0.6914062,0.328125 H 0.80996875 V -1.40625e-4 C 0.938875,-0.01185937 1.7943437,-0.02357812 2.0521562,-0.02357812 c 0.2109375,0 1.0898438,0.01171875 1.2421875,0.023437495 V -0.24623437 H 3.0365312 c -0.703125,0 -0.703125,-0.09375 -0.703125,-0.328125 z m 0,0"
       style="fill:#0000ff;fill-opacity:1;fill-rule:nonzero;stroke:none"
       aria-label="1"
       transform="matrix(1.3333333,0,0,1.3333333,15.310667,35.008)" />
    <path
       id="path34"
       d="M 0,0 H 7.942"
       style="fill:none;stroke:#0000ff;stroke-width:0.398;stroke-linecap:butt;stroke-linejoin:miter;stroke-miterlimit:10;stroke-dasharray:none;stroke-opacity:1"
       transform="matrix(1.3333333,0,0,-1.3333333,12.662667,36.917333)" />
    <path
       id="path35"
       d="m 1.8994844,-2.3307969 c 0.5507812,0 0.9375,0.375 0.9375,1.125 0,0.86718753 -0.5039063,1.12500003 -0.9023438,1.12500003 -0.28125,0 -0.890625,-0.08203125 -1.18359372,-0.4921875 0.32812502,-0.0117188 0.39843752,-0.24609375 0.39843752,-0.38671875 0,-0.22265628 -0.16406252,-0.38671878 -0.38671877,-0.38671878 -0.1875,0 -0.38671875,0.1171875 -0.38671875,0.41015628 0,0.65625 0.72656252,1.078125 1.57031252,1.078125 0.9726562,0 1.640625,-0.64453125 1.640625,-1.34765628 0,-0.5390625 -0.4453125,-1.0898437 -1.21875,-1.2421875 0.7382812,-0.2695312 0.9960937,-0.796875 0.9960937,-1.21875 0,-0.5507812 -0.6328125,-0.9609375 -1.40625,-0.9609375 -0.7734375,0 -1.35937497,0.375 -1.35937497,0.9375 0,0.234375 0.15234375,0.3632813 0.36328125,0.3632813 0.21093752,0 0.35156252,-0.1640625 0.35156252,-0.3515625 0,-0.1992188 -0.140625,-0.3515625 -0.35156252,-0.3632813 0.23437502,-0.3046875 0.71484372,-0.3867187 0.97265622,-0.3867187 0.3164063,0 0.7617188,0.1523437 0.7617188,0.7617187 0,0.2929688 -0.1054688,0.609375 -0.28125,0.8320313 -0.234375,0.2578125 -0.421875,0.28125 -0.7734375,0.2929687 -0.1757813,0.023437 -0.1875,0.023437 -0.2226563,0.023437 -0.011719,0 -0.070312,0.011719 -0.070312,0.09375 0,0.09375 0.058594,0.09375 0.1757813,0.09375 z m 3.1142578,0.046875 c 0,-0.5625 0.046875,-1.078125 0.3164062,-1.5117187 0.234375,-0.375 0.609375,-0.6328125 1.0546875,-0.6328125 0.2109375,0 0.4921875,0.058594 0.6328125,0.2460937 -0.1757812,0.011719 -0.3164062,0.1289063 -0.3164062,0.3398438 0,0.1640625 0.1171875,0.328125 0.328125,0.328125 0.1992187,0 0.328125,-0.140625 0.328125,-0.3515625 0,-0.3984375 -0.2929688,-0.7617188 -0.984375,-0.7617188 -0.9960938,0 -2.0273438,0.9140625 -2.0273438,2.4140625 0,1.80468753 0.8554688,2.35546878 1.6171875,2.35546878 0.8554688,0 1.59375,-0.64453125 1.59375,-1.55859378 0,-0.890625 -0.703125,-1.546875 -1.5234375,-1.546875 -0.5507812,0 -0.8671875,0.375 -1.0195312,0.6796875 z m 0.9492187,2.20312503 c -0.3515625,0 -0.6210937,-0.19921875 -0.7617187,-0.515625 C 5.0957734,-0.79564062 5.0371797,-1.1472031 5.0371797,-1.5690781 c 0,-0.6796875 0.4101562,-1.1953125 0.9609375,-1.1953125 0.328125,0 0.5390625,0.1171875 0.7148437,0.3867187 0.1640625,0.2578125 0.1757813,0.5507813 0.1757813,0.9609375 0,0.3984375 0,0.69140628 -0.1875,0.96093753 -0.1757813,0.24609375 -0.3984375,0.375 -0.7382813,0.375 z m 0,0"
       style="fill:#0000ff;fill-opacity:1;fill-rule:nonzero;stroke:none"
       aria-label="36"
       transform="matrix(1.3333333,0,0,1.3333333,12.662667,44.818667)" />
    <path
       id="path36"
       d="m 2.3327891,-4.4310625 c 0,-0.1875 -0.011719,-0.1992187 -0.2109375,-0.1992187 -0.4453125,0.4335937 -1.078125,0.4453125 -1.35937504,0.4453125 v 0.2460937 c 0.1640625,0 0.62109374,0 1.00781254,-0.1875 v 3.55078125 c 0,0.234375 0,0.328125 -0.6914063,0.328125 H 0.80935156 V -0.001375 c 0.12890625,-0.01171875 0.98437504,-0.0234375 1.24218754,-0.0234375 0.2109375,0 1.0898437,0.01171875 1.2421875,0.0234375 V -0.24746875 H 3.0359141 c -0.703125,0 -0.703125,-0.09375 -0.703125,-0.328125 z m 0,0"
       style="fill:#0000ff;fill-opacity:1;fill-rule:nonzero;stroke:none"
       aria-label="1"
       transform="matrix(1.3333333,0,0,1.3333333,90.901333,186.18933)" />
    <path
       id="path37"
       d="M 0,0 H 3.971"
       style="fill:none;stroke:#0000ff;stroke-width:0.398;stroke-linecap:butt;stroke-linejoin:miter;stroke-miterlimit:10;stroke-dasharray:none;stroke-opacity:1"
       transform="matrix(1.3333333,0,0,-1.3333333,90.901333,188.09867)" />
    <path
       id="path38"
       d="m 2.9187266,-2.0742187 c 0,1.7226562 -0.8554688,1.99218745 -1.2773438,1.99218745 -0.1523437,0 -0.5273437,-0.01171875 -0.71484374,-0.234375 0.29296874,-0.0234375 0.30468754,-0.2578125 0.30468754,-0.328125 0,-0.17578125 -0.1171875,-0.328125 -0.32812504,-0.328125 -0.19921875,0 -0.328125,0.140625 -0.328125,0.33984375 0,0.48046875 0.3984375,0.7734375 1.06640624,0.7734375 1.0078125,0 1.9453125,-0.9375 1.9453125,-2.4375 0,-1.7226562 -0.7734375,-2.3320312 -1.5820312,-2.3320312 -0.234375,0 -0.7148438,0.035156 -1.11328129,0.421875 -0.234375,0.234375 -0.515625,0.5039062 -0.515625,1.1367187 0,0.8789063 0.70312499,1.5351563 1.52343749,1.5351563 0.5507813,0 0.8554688,-0.3632813 1.0195313,-0.6796875 z m -0.984375,0.3398437 c -0.2695313,0 -0.5273438,-0.082031 -0.7265625,-0.4101562 -0.1640625,-0.2578125 -0.1640625,-0.5507813 -0.1640625,-0.9257813 0,-0.4101562 0,-0.6914062 0.2109375,-0.9726562 0.1640625,-0.234375 0.3867187,-0.3867188 0.75,-0.3867188 0.3632812,0 0.5742187,0.2226563 0.6796875,0.4101563 0.1875,0.2929687 0.2109375,0.7734375 0.2109375,1.0195312 0,0.9023438 -0.5273438,1.265625 -0.9609375,1.265625 z m 0,0"
       style="fill:#0000ff;fill-opacity:1;fill-rule:nonzero;stroke:none"
       aria-label="9"
       transform="matrix(1.3333333,0,0,1.3333333,90.901333,196)" />
    <path
       id="path39"
       d="M 3.6921641,-1.1491953 V -1.3952891 H 2.9187266 v -3.1054687 c 0,-0.1523438 0,-0.1992188 -0.1523438,-0.1992188 -0.09375,0 -0.1171875,0 -0.1875,0.09375 l -2.30859374,3.2109375 v 0.2460938 H 2.3210703 v 0.57421874 c 0,0.234375 0,0.328125 -0.5625,0.328125 h -0.1875 V -7.578125e-4 C 1.9226328,-0.01247656 2.3679453,-0.02419531 2.6140391,-0.02419531 c 0.2578125,0 0.703125,0.01171875 1.0546875,0.0234374975 V -0.24685156 h -0.1875 c -0.5625,0 -0.5625,-0.09375 -0.5625,-0.328125 V -1.1491953 Z M 2.3679453,-3.9499766 v 2.5546875 H 0.52810156 Z m 0,0"
       style="fill:#0000ff;fill-opacity:1;fill-rule:nonzero;stroke:none"
       aria-label="4"
       transform="matrix(1.3333333,0,0,1.3333333,90.901333,110.59867)" />
    <path
       id="path40"
       d="M 0,0 H 3.971"
       style="fill:none;stroke:#0000ff;stroke-width:0.398;stroke-linecap:butt;stroke-linejoin:miter;stroke-miterlimit:10;stroke-dasharray:none;stroke-opacity:1"
       transform="matrix(1.3333333,0,0,-1.3333333,90.901333,112.508)" />
    <path
       id="path41"
       d="m 2.9187266,-2.0736016 c 0,1.72265629 -0.8554688,1.99218754 -1.2773438,1.99218754 -0.1523437,0 -0.5273437,-0.01171875 -0.71484374,-0.234375 0.29296874,-0.0234375 0.30468754,-0.2578125 0.30468754,-0.328125 0,-0.17578125 -0.1171875,-0.328125 -0.32812504,-0.328125 -0.19921875,0 -0.328125,0.140625 -0.328125,0.33984375 0,0.48046875 0.3984375,0.7734375 1.06640624,0.7734375 1.0078125,0 1.9453125,-0.9375 1.9453125,-2.43749999 0,-1.7226563 -0.7734375,-2.3320313 -1.5820312,-2.3320313 -0.234375,0 -0.7148438,0.035156 -1.11328129,0.421875 -0.234375,0.234375 -0.515625,0.5039063 -0.515625,1.1367188 0,0.8789062 0.70312499,1.5351562 1.52343749,1.5351562 0.5507813,0 0.8554688,-0.3632812 1.0195313,-0.6796875 z m -0.984375,0.3398438 c -0.2695313,0 -0.5273438,-0.082031 -0.7265625,-0.4101563 -0.1640625,-0.2578125 -0.1640625,-0.5507812 -0.1640625,-0.9257812 0,-0.4101563 0,-0.6914063 0.2109375,-0.9726563 0.1640625,-0.234375 0.3867187,-0.3867187 0.75,-0.3867187 0.3632812,0 0.5742187,0.2226562 0.6796875,0.4101562 0.1875,0.2929688 0.2109375,0.7734375 0.2109375,1.0195313 0,0.9023437 -0.5273438,1.265625 -0.9609375,1.265625 z m 0,0"
       style="fill:#0000ff;fill-opacity:1;fill-rule:nonzero;stroke:none"
       aria-label="9"
       transform="matrix(1.3333333,0,0,1.3333333,90.901333,120.40933)" />
    <path
       id="path42"
       d="m 2.3327891,-4.4298281 c 0,-0.1875 -0.011719,-0.1992188 -0.2109375,-0.1992188 -0.4453125,0.4335938 -1.078125,0.4453125 -1.35937504,0.4453125 v 0.2460938 c 0.1640625,0 0.62109374,0 1.00781254,-0.1875 v 3.55078123 c 0,0.234375 0,0.328125 -0.6914063,0.328125 H 0.80935156 V -1.40625e-4 C 0.93825781,-0.01185937 1.7937266,-0.02357812 2.0515391,-0.02357812 c 0.2109375,0 1.0898437,0.01171875 1.2421875,0.023437495 V -0.24623437 H 3.0359141 c -0.703125,0 -0.703125,-0.09375 -0.703125,-0.328125 z m 0,0"
       style="fill:#0000ff;fill-opacity:1;fill-rule:nonzero;stroke:none"
       aria-label="1"
       transform="matrix(1.3333333,0,0,1.3333333,90.901333,35.008)" />
    <path
       id="path43"
       d="M 0,0 H 3.971"
       style="fill:none;stroke:#0000ff;stroke-width:0.398;stroke-linecap:butt;stroke-linejoin:miter;stroke-miterlimit:10;stroke-dasharray:none;stroke-opacity:1"
       transform="matrix(1.3333333,0,0,-1.3333333,90.901333,36.917333)" />
    <path
       id="path44"
       d="m 2.9187266,-2.0729844 c 0,1.72265628 -0.8554688,1.99218753 -1.2773438,1.99218753 -0.1523437,0 -0.5273437,-0.01171875 -0.71484374,-0.234375 0.29296874,-0.0234375 0.30468754,-0.2578125 0.30468754,-0.328125 0,-0.17578125 -0.1171875,-0.328125 -0.32812504,-0.328125 -0.19921875,0 -0.328125,0.140625 -0.328125,0.33984375 0,0.48046875 0.3984375,0.7734375 1.06640624,0.7734375 1.0078125,0 1.9453125,-0.9375 1.9453125,-2.43749998 0,-1.7226563 -0.7734375,-2.3320313 -1.5820312,-2.3320313 -0.234375,0 -0.7148438,0.035156 -1.11328129,0.421875 -0.234375,0.234375 -0.515625,0.5039063 -0.515625,1.1367188 0,0.8789062 0.70312499,1.5351562 1.52343749,1.5351562 0.5507813,0 0.8554688,-0.3632812 1.0195313,-0.6796875 z m -0.984375,0.3398438 c -0.2695313,0 -0.5273438,-0.082031 -0.7265625,-0.4101563 -0.1640625,-0.2578125 -0.1640625,-0.5507812 -0.1640625,-0.9257812 0,-0.4101563 0,-0.6914063 0.2109375,-0.9726563 0.1640625,-0.234375 0.3867187,-0.3867187 0.75,-0.3867187 0.3632812,0 0.5742187,0.2226562 0.6796875,0.4101562 0.1875,0.2929688 0.2109375,0.7734375 0.2109375,1.0195313 0,0.9023437 -0.5273438,1.265625 -0.9609375,1.265625 z m 0,0"
       style="fill:#0000ff;fill-opacity:1;fill-rule:nonzero;stroke:none"
       aria-label="9"
       transform="matrix(1.3333333,0,0,1.3333333,90.901333,44.818667)" />
    <path
       id="path45"
       d="m 2.3321719,-4.4310625 c 0,-0.1875 -0.011719,-0.1992187 -0.2109375,-0.1992187 -0.4453125,0.4335937 -1.078125,0.4453125 -1.35937503,0.4453125 v 0.2460937 c 0.1640625,0 0.62109373,0 1.00781253,-0.1875 v 3.55078125 c 0,0.234375 0,0.328125 -0.6914063,0.328125 H 0.80873437 V -0.001375 c 0.12890625,-0.01171875 0.98437503,-0.0234375 1.24218753,-0.0234375 0.2109375,0 1.0898437,0.01171875 1.2421875,0.0234375 V -0.24746875 H 3.0352969 c -0.703125,0 -0.703125,-0.09375 -0.703125,-0.328125 z m 0,0"
       style="fill:#0000ff;fill-opacity:1;fill-rule:nonzero;stroke:none"
       aria-label="1"
       transform="matrix(1.3333333,0,0,1.3333333,166.492,186.18933)" />
    <path
       id="path46"
       d="M 0,0 H 7.942"
       style="fill:none;stroke:#0000ff;stroke-width:0.398;stroke-linecap:butt;stroke-linejoin:miter;stroke-miterlimit:10;stroke-dasharray:none;stroke-opacity:1"
       transform="matrix(1.3333333,0,0,-1.3333333,163.844,188.09867)" />
    <path
       id="path47"
       d="m 1.89825,-2.3320312 c 0.5507812,0 0.9375,0.375 0.9375,1.125 0,0.86718745 -0.5039063,1.12499995 -0.9023438,1.12499995 -0.28125,0 -0.890625,-0.08203125 -1.1835937,-0.4921875 C 1.0779375,-0.5859375 1.14825,-0.8203125 1.14825,-0.9609375 c 0,-0.2226562 -0.1640625,-0.3867187 -0.38671875,-0.3867187 -0.1875,0 -0.38671875,0.1171875 -0.38671875,0.4101562 0,0.65625 0.7265625,1.078125 1.5703125,1.078125 0.9726562,0 1.640625,-0.64453125 1.640625,-1.3476562 0,-0.5390625 -0.4453125,-1.0898438 -1.21875,-1.2421875 0.7382812,-0.2695313 0.9960937,-0.796875 0.9960937,-1.21875 0,-0.5507813 -0.6328125,-0.9609375 -1.40625,-0.9609375 -0.7734375,0 -1.35937495,0.375 -1.35937495,0.9375 0,0.234375 0.15234375,0.3632812 0.36328125,0.3632812 0.2109375,0 0.3515625,-0.1640625 0.3515625,-0.3515625 0,-0.1992187 -0.140625,-0.3515625 -0.3515625,-0.3632812 0.234375,-0.3046875 0.7148437,-0.3867188 0.9726562,-0.3867188 0.3164063,0 0.7617188,0.1523438 0.7617188,0.7617188 0,0.2929687 -0.1054688,0.609375 -0.28125,0.8320312 -0.234375,0.2578125 -0.421875,0.28125 -0.7734375,0.2929688 -0.1757813,0.023437 -0.1875,0.023437 -0.2226563,0.023437 -0.011719,0 -0.070312,0.011719 -0.070312,0.09375 0,0.09375 0.058594,0.09375 0.1757813,0.09375 z m 3.1171875,0.046875 c 0,-0.5625 0.046875,-1.078125 0.3164062,-1.5117188 0.234375,-0.375 0.609375,-0.6328125 1.0546875,-0.6328125 0.2109375,0 0.4921875,0.058594 0.6328125,0.2460938 -0.1757812,0.011719 -0.3164062,0.1289062 -0.3164062,0.3398437 0,0.1640625 0.1171875,0.328125 0.328125,0.328125 0.1992187,0 0.328125,-0.140625 0.328125,-0.3515625 0,-0.3984375 -0.2929688,-0.7617187 -0.984375,-0.7617187 -0.9960938,0 -2.0273438,0.9140625 -2.0273438,2.4140625 0,1.80468745 0.8554688,2.3554687 1.6171875,2.3554687 0.8554688,0 1.59375,-0.64453125 1.59375,-1.5585937 0,-0.890625 -0.703125,-1.546875 -1.5234375,-1.546875 -0.5507812,0 -0.8671875,0.375 -1.0195312,0.6796875 z m 0.9492187,2.20312495 c -0.3515625,0 -0.6210937,-0.19921875 -0.7617187,-0.515625 C 5.0974687,-0.796875 5.038875,-1.1484375 5.038875,-1.5703125 c 0,-0.6796875 0.4101562,-1.1953125 0.9609375,-1.1953125 0.328125,0 0.5390625,0.1171875 0.7148437,0.3867188 0.1640625,0.2578125 0.1757813,0.5507812 0.1757813,0.9609375 0,0.3984375 0,0.6914062 -0.1875,0.96093745 -0.1757813,0.24609375 -0.3984375,0.375 -0.7382813,0.375 z m 0,0"
       style="fill:#0000ff;fill-opacity:1;fill-rule:nonzero;stroke:none"
       aria-label="36"
       transform="matrix(1.3333333,0,0,1.3333333,163.844,196)" />
    <path
       id="path48"
       d="m 2.3321719,-4.4304453 c 0,-0.1875 -0.011719,-0.1992188 -0.2109375,-0.1992188 -0.4453125,0.4335938 -1.078125,0.4453125 -1.35937503,0.4453125 v 0.2460938 c 0.1640625,0 0.62109373,0 1.00781253,-0.1875 v 3.55078124 c 0,0.234375 0,0.328125 -0.6914063,0.328125 H 0.80873437 V -7.578125e-4 C 0.93764062,-0.01247656 1.7931094,-0.02419531 2.0509219,-0.02419531 c 0.2109375,0 1.0898437,0.01171875 1.2421875,0.0234374975 V -0.24685156 H 3.0352969 c -0.703125,0 -0.703125,-0.09375 -0.703125,-0.328125 z m 0,0"
       style="fill:#0000ff;fill-opacity:1;fill-rule:nonzero;stroke:none"
       aria-label="1"
       transform="matrix(1.3333333,0,0,1.3333333,166.492,110.59867)" />
    <path
       id="path49"
       d="M 0,0 H 3.971"
       style="fill:none;stroke:#0000ff;stroke-width:0.398;stroke-linecap:butt;stroke-linejoin:miter;stroke-miterlimit:10;stroke-dasharray:none;stroke-opacity:1"
       transform="matrix(1.3333333,0,0,-1.3333333,166.492,112.508)" />
    <path
       id="path50"
       d="m 2.9181094,-2.0736016 c 0,1.72265629 -0.8554688,1.99218754 -1.2773438,1.99218754 -0.1523437,0 -0.5273437,-0.01171875 -0.71484373,-0.234375 0.29296873,-0.0234375 0.30468753,-0.2578125 0.30468753,-0.328125 0,-0.17578125 -0.1171875,-0.328125 -0.32812503,-0.328125 -0.19921875,0 -0.328125,0.140625 -0.328125,0.33984375 0,0.48046875 0.3984375,0.7734375 1.06640623,0.7734375 1.0078125,0 1.9453125,-0.9375 1.9453125,-2.43749999 0,-1.7226563 -0.7734375,-2.3320313 -1.5820312,-2.3320313 -0.234375,0 -0.7148438,0.035156 -1.11328128,0.421875 -0.234375,0.234375 -0.515625,0.5039063 -0.515625,1.1367188 0,0.8789062 0.70312498,1.5351562 1.52343748,1.5351562 0.5507813,0 0.8554688,-0.3632812 1.0195313,-0.6796875 z m -0.984375,0.3398438 c -0.2695313,0 -0.5273438,-0.082031 -0.7265625,-0.4101563 -0.1640625,-0.2578125 -0.1640625,-0.5507812 -0.1640625,-0.9257812 0,-0.4101563 0,-0.6914063 0.2109375,-0.9726563 0.1640625,-0.234375 0.3867187,-0.3867187 0.75,-0.3867187 0.3632812,0 0.5742187,0.2226562 0.6796875,0.4101562 0.1875,0.2929688 0.2109375,0.7734375 0.2109375,1.0195313 0,0.9023437 -0.5273438,1.265625 -0.9609375,1.265625 z m 0,0"
       style="fill:#0000ff;fill-opacity:1;fill-rule:nonzero;stroke:none"
       aria-label="9"
       transform="matrix(1.3333333,0,0,1.3333333,166.492,120.40933)" />
    <path
       id="path51"
       d="m 2.3321719,-4.4298281 c 0,-0.1875 -0.011719,-0.1992188 -0.2109375,-0.1992188 -0.4453125,0.4335938 -1.078125,0.4453125 -1.35937503,0.4453125 v 0.2460938 c 0.1640625,0 0.62109373,0 1.00781253,-0.1875 v 3.55078123 c 0,0.234375 0,0.328125 -0.6914063,0.328125 H 0.80873437 V -1.40625e-4 C 0.93764062,-0.01185937 1.7931094,-0.02357812 2.0509219,-0.02357812 c 0.2109375,0 1.0898437,0.01171875 1.2421875,0.023437495 V -0.24623437 H 3.0352969 c -0.703125,0 -0.703125,-0.09375 -0.703125,-0.328125 z m 0,0"
       style="fill:#0000ff;fill-opacity:1;fill-rule:nonzero;stroke:none"
       aria-label="1"
       transform="matrix(1.3333333,0,0,1.3333333,166.492,35.008)" />
    <path
       id="path52"
       d="M 0,0 H 7.942"
       style="fill:none;stroke:#0000ff;stroke-width:0.398;stroke-linecap:butt;stroke-linejoin:miter;stroke-miterlimit:10;stroke-dasharray:none;stroke-opacity:1"
       transform="matrix(1.3333333,0,0,-1.3333333,163.844,36.917333)" />
    <path
       id="path53"
       d="m 1.89825,-2.3307969 c 0.5507812,0 0.9375,0.375 0.9375,1.125 0,0.86718753 -0.5039063,1.12500003 -0.9023438,1.12500003 -0.28125,0 -0.890625,-0.08203125 -1.1835937,-0.4921875 0.328125,-0.0117188 0.3984375,-0.24609375 0.3984375,-0.38671875 0,-0.22265628 -0.1640625,-0.38671878 -0.38671875,-0.38671878 -0.1875,0 -0.38671875,0.1171875 -0.38671875,0.41015628 0,0.65625 0.7265625,1.078125 1.5703125,1.078125 0.9726562,0 1.640625,-0.64453125 1.640625,-1.34765628 0,-0.5390625 -0.4453125,-1.0898437 -1.21875,-1.2421875 0.7382812,-0.2695312 0.9960937,-0.796875 0.9960937,-1.21875 0,-0.5507812 -0.6328125,-0.9609375 -1.40625,-0.9609375 -0.7734375,0 -1.35937495,0.375 -1.35937495,0.9375 0,0.234375 0.15234375,0.3632813 0.36328125,0.3632813 0.2109375,0 0.3515625,-0.1640625 0.3515625,-0.3515625 0,-0.1992188 -0.140625,-0.3515625 -0.3515625,-0.3632813 0.234375,-0.3046875 0.7148437,-0.3867187 0.9726562,-0.3867187 0.3164063,0 0.7617188,0.1523437 0.7617188,0.7617187 0,0.2929688 -0.1054688,0.609375 -0.28125,0.8320313 -0.234375,0.2578125 -0.421875,0.28125 -0.7734375,0.2929687 -0.1757813,0.023437 -0.1875,0.023437 -0.2226563,0.023437 -0.011719,0 -0.070312,0.011719 -0.070312,0.09375 0,0.09375 0.058594,0.09375 0.1757813,0.09375 z m 3.1171875,0.046875 c 0,-0.5625 0.046875,-1.078125 0.3164062,-1.5117187 0.234375,-0.375 0.609375,-0.6328125 1.0546875,-0.6328125 0.2109375,0 0.4921875,0.058594 0.6328125,0.2460937 -0.1757812,0.011719 -0.3164062,0.1289063 -0.3164062,0.3398438 0,0.1640625 0.1171875,0.328125 0.328125,0.328125 0.1992187,0 0.328125,-0.140625 0.328125,-0.3515625 0,-0.3984375 -0.2929688,-0.7617188 -0.984375,-0.7617188 -0.9960938,0 -2.0273438,0.9140625 -2.0273438,2.4140625 0,1.80468753 0.8554688,2.35546878 1.6171875,2.35546878 0.8554688,0 1.59375,-0.64453125 1.59375,-1.55859378 0,-0.890625 -0.703125,-1.546875 -1.5234375,-1.546875 -0.5507812,0 -0.8671875,0.375 -1.0195312,0.6796875 z m 0.9492187,2.20312503 c -0.3515625,0 -0.6210937,-0.19921875 -0.7617187,-0.515625 C 5.0974687,-0.79564062 5.038875,-1.1472031 5.038875,-1.5690781 c 0,-0.6796875 0.4101562,-1.1953125 0.9609375,-1.1953125 0.328125,0 0.5390625,0.1171875 0.7148437,0.3867187 0.1640625,0.2578125 0.1757813,0.5507813 0.1757813,0.9609375 0,0.3984375 0,0.69140628 -0.1875,0.96093753 -0.1757813,0.24609375 -0.3984375,0.375 -0.7382813,0.375 z m 0,0"
       style="fill:#0000ff;fill-opacity:1;fill-rule:nonzero;stroke:none"
       aria-label="36"
       transform="matrix(1.3333333,0,0,1.3333333,163.844,44.818667)" />
    <path
       id="path54"
       d="m 4.7473516,-6.0689375 c 0.082031,-0.1171875 0.082031,-0.140625 0.082031,-0.3398437 H 2.4153203 c -1.21875,0 -1.2421875,-0.1289063 -1.2773437,-0.328125 H 0.89188281 l -0.328125,2.0507812 h 0.24609375 c 0.0234375,-0.1523437 0.1171875,-0.7851562 0.24609374,-0.9023437 0.070312,-0.058594 0.84375,-0.058594 0.9726563,-0.058594 h 2.0625 C 3.9856328,-5.483 3.2004766,-4.404875 2.9778203,-4.07675 c -0.890625,1.3476563 -1.21875,2.7304688 -1.21875,3.75 0,0.09375 0,0.55078125 0.4570313,0.55078125 0.4570312,0 0.4570312,-0.45703125 0.4570312,-0.55078125 v -0.50390625 c 0,-0.55078125 0.023437,-1.10156245 0.1054688,-1.64062495 0.046875,-0.2226563 0.1757812,-1.078125 0.6210937,-1.6992188 z m 0,0"
       style="fill:#ff0000;fill-opacity:1;fill-rule:nonzero;stroke:none"
       aria-label="7"
       transform="matrix(1.3333333,0,0,1.3333333,22.650667,170.81067)" />
    <path
       id="path55"
       d="m 2.9309453,-1.6415625 v 0.8671875 c 0,0.3515625 -0.023437,0.46875 -0.7617187,0.46875 H 1.9582891 v 0.3046875 c 0.4101562,-0.03515625 0.9375,-0.03515625 1.3476562,-0.03515625 0.421875,0 0.9492188,0 1.359375,0.03515625 V -0.305625 H 4.4543828 c -0.7382812,0 -0.7617187,-0.1171875 -0.7617187,-0.46875 V -1.6415625 H 4.6887578 V -1.9579687 H 3.6926641 v -4.5234375 c 0,-0.1992188 0,-0.2578125 -0.1523438,-0.2578125 -0.09375,0 -0.1171875,0 -0.1992187,0.1171875 l -3.05859379,4.6640625 v 0.3164062 z m 0.058594,-0.3164062 H 0.56375781 L 2.9895391,-5.6728125 Z m 0,0"
       style="fill:#ff0000;fill-opacity:1;fill-rule:nonzero;stroke:none"
       aria-label="4"
       transform="matrix(1.3333333,0,0,1.3333333,22.650667,95.22)" />
    <path
       id="path56"
       d="m 1.6301641,-4.5471953 c -0.46875,-0.3046875 -0.5039063,-0.6445313 -0.5039063,-0.8085938 0,-0.609375 0.6445313,-1.03125 1.359375,-1.03125 0.7265625,0 1.359375,0.515625 1.359375,1.2421875 0,0.5625 -0.3867187,1.0429688 -0.984375,1.3945313 z m 1.453125,0.9375 c 0.7148437,-0.3632813 1.2070312,-0.8789063 1.2070312,-1.5351563 0,-0.9257812 -0.890625,-1.4882812 -1.7929687,-1.4882812 -0.9960938,0 -1.80468754,0.7382812 -1.80468754,1.6640625 0,0.1757812 0.0117188,0.6210937 0.43359374,1.0898437 0.1054688,0.1289063 0.4804688,0.375 0.7265625,0.5390625 -0.5742187,0.2929688 -1.42968749,0.84375 -1.42968749,1.8398438 0,1.05468749 1.00781249,1.72265624 2.06249999,1.72265624 1.125,0 2.0625,-0.83203125 2.0625,-1.89843754 0,-0.3515625 -0.1054687,-0.8085937 -0.4804687,-1.21875 -0.1875,-0.2109375 -0.3515625,-0.3164062 -0.984375,-0.7148437 z m -0.9960938,0.421875 1.21875,0.7734375 c 0.28125,0.1875 0.75,0.4921875 0.75,1.1015625 0,0.73828124 -0.75,1.25390624 -1.5585937,1.25390624 -0.8671875,0 -1.58203129,-0.62109375 -1.58203129,-1.44140624 0,-0.5859375 0.31640629,-1.21875 1.17187499,-1.6875 z m 0,0"
       style="fill:#ff0000;fill-opacity:1;fill-rule:nonzero;stroke:none"
       aria-label="8"
       transform="matrix(1.3333333,0,0,1.3333333,22.650667,19.629333)" />
    <path
       id="path57"
       d="m 2.8951719,-3.5025312 c 0.8085937,-0.2695313 1.3945312,-0.9726563 1.3945312,-1.7578125 0,-0.8203125 -0.8789062,-1.3710938 -1.8398437,-1.3710938 -1.0078125,0 -1.75781252,0.5976563 -1.75781252,1.3476563 0,0.3398437 0.2109375,0.5273437 0.50390622,0.5273437 0.3046875,0 0.5039063,-0.2226562 0.5039063,-0.515625 0,-0.4921875 -0.46875,-0.4921875 -0.609375,-0.4921875 0.3046875,-0.4921875 0.9609375,-0.6210937 1.3242187,-0.6210937 0.4101563,0 0.9492188,0.2226562 0.9492188,1.1132812 0,0.1289063 -0.011719,0.703125 -0.2695313,1.1367188 -0.3046875,0.4804687 -0.6445312,0.515625 -0.890625,0.515625 -0.082031,0.011719 -0.3164062,0.035156 -0.3867187,0.035156 -0.082031,0.011719 -0.1523438,0.023437 -0.1523438,0.1171875 0,0.1171875 0.070312,0.1171875 0.234375,0.1171875 h 0.4453125 c 0.8085938,0 1.1835938,0.6679688 1.1835938,1.6523438 0,1.3476562 -0.6914063,1.64062495 -1.125,1.64062495 -0.4335938,0 -1.171875,-0.17578125 -1.52343752,-0.76171875 C 1.2311094,-0.76034375 1.5357969,-0.983 1.5357969,-1.358 c 0,-0.3632812 -0.2695313,-0.5625 -0.56250002,-0.5625 -0.234375,0 -0.55078125,0.140625 -0.55078125,0.5742188 0,0.91406245 0.92578127,1.57031245 2.00390627,1.57031245 1.21875,0 2.1210937,-0.9140625 2.1210937,-1.92187495 0,-0.8203125 -0.6210937,-1.59375 -1.6523437,-1.8046875 z m 0,0"
       style="fill:#ff0000;fill-opacity:1;fill-rule:nonzero;stroke:none"
       aria-label="3"
       transform="matrix(1.3333333,0,0,1.3333333,98.241333,170.81067)" />
    <path
       id="path58"
       d="m 4.5826719,-3.1884375 c 0,-0.796875 -0.046875,-1.59375 -0.3984375,-2.3320312 -0.4570313,-0.9609375 -1.2773438,-1.1132813 -1.6875,-1.1132813 -0.5976563,0 -1.3359375,0.2578125 -1.73437502,1.1835938 -0.328125,0.6914062 -0.375,1.4648437 -0.375,2.2617187 0,0.75 0.046875,1.640625 0.4453125,2.40234375 C 1.2662656,0.0225 1.9928281,0.22171875 2.4850156,0.22171875 c 0.5390625,0 1.2890625,-0.2109375 1.734375,-1.16015625 0.3164063,-0.6914062 0.3632813,-1.4648437 0.3632813,-2.25 z m -2.0976563,3.1875 c -0.3867187,0 -0.984375,-0.24609375 -1.1601562,-1.2070312 C 1.2193906,-1.805625 1.2193906,-2.7196875 1.2193906,-3.305625 c 0,-0.6445312 0,-1.3007812 0.082031,-1.8398437 0.1875,-1.1835938 0.9257812,-1.265625 1.1835937,-1.265625 0.328125,0 0.984375,0.1757812 1.171875,1.1601562 0.09375,0.5625 0.09375,1.3125 0.09375,1.9453125 0,0.75 0,1.4179688 -0.1054687,2.0625 -0.1523438,0.9375 -0.7148438,1.2421875 -1.160156,1.2421875 z m 0,0"
       style="fill:#ff0000;fill-opacity:1;fill-rule:nonzero;stroke:none"
       aria-label="0"
       transform="matrix(1.3333333,0,0,1.3333333,98.241333,95.22)" />
    <path
       id="path59"
       d="m 2.9303281,-6.3753203 c 0,-0.234375 0,-0.2578125 -0.234375,-0.2578125 -0.609375,0.6328125 -1.4882812,0.6328125 -1.80468747,0.6328125 v 0.3164062 c 0.19921877,0 0.78515627,0 1.30078127,-0.2578125 v 5.15625004 c 0,0.3515625 -0.035156,0.48046875 -0.9257813,0.48046875 H 0.94985938 V -3.203125e-4 C 1.3014219,-0.03547656 2.1568906,-0.03547656 2.5553281,-0.03547656 c 0.3984375,0 1.265625,0 1.6171875,0.0351562475 V -0.30500781 H 3.8561094 c -0.9023438,0 -0.9257813,-0.1171875 -0.9257813,-0.48046875 z m 0,0"
       style="fill:#ff0000;fill-opacity:1;fill-rule:nonzero;stroke:none"
       aria-label="1"
       transform="matrix(1.3333333,0,0,1.3333333,98.241333,19.629333)" />
    <path
       id="path60"
       d="m 1.3125234,-3.2681562 v -0.234375 c 0,-2.5195313 1.2421875,-2.8828125 1.7460938,-2.8828125 0.234375,0 0.65625,0.058594 0.8789062,0.3984375 -0.1523437,0 -0.5507812,0 -0.5507812,0.4453125 0,0.3164062 0.234375,0.4570312 0.4570312,0.4570312 0.1640625,0 0.4570313,-0.082031 0.4570313,-0.46875 0,-0.5976562 -0.4335938,-1.078125 -1.265625,-1.078125 -1.2773438,0 -2.61328126,1.2890625 -2.61328126,3.4804688 0,2.6601562 1.14843746,3.37499995 2.07421876,3.37499995 1.1132812,0 2.0507812,-0.9375 2.0507812,-2.24999995 0,-1.265625 -0.8789062,-2.2265625 -1.9921875,-2.2265625 -0.6679687,0 -1.0429687,0.5039062 -1.2421875,0.984375 z m 1.1835938,3.21093745 c -0.6210938,0 -0.9257813,-0.59765625 -0.984375,-0.75 C 1.3359609,-1.2759687 1.3359609,-2.0728437 1.3359609,-2.248625 c 0,-0.7734375 0.3164063,-1.7695312 1.21875,-1.7695312 0.1523438,0 0.609375,0 0.9257813,0.609375 0.1757812,0.375 0.1757812,0.8789062 0.1757812,1.3710937 0,0.4804688 0,0.9726563 -0.1640625,1.3359375 -0.3046875,0.59765625 -0.7617187,0.64453125 -0.9960937,0.64453125 z m 0,0"
       style="fill:#ff0000;fill-opacity:1;fill-rule:nonzero;stroke:none"
       aria-label="6"
       transform="matrix(1.3333333,0,0,1.3333333,173.832,170.81067)" />
    <path
       id="path61"
       d="M 1.2656484,-0.76265625 2.3203359,-1.7939062 c 1.5585938,-1.3710938 2.15625,-1.9101563 2.15625,-2.90625 0,-1.1367188 -0.9023437,-1.9335938 -2.1210937,-1.9335938 -1.125,0 -1.85156251,0.9140625 -1.85156251,1.8046875 0,0.5507813 0.4921875,0.5507813 0.52734371,0.5507813 0.1640625,0 0.515625,-0.1171875 0.515625,-0.5273438 0,-0.2578125 -0.1875,-0.515625 -0.5273437,-0.515625 -0.0820313,0 -0.10546876,0 -0.12890626,0.011719 0.22265626,-0.6445313 0.76171876,-1.0195313 1.33593746,-1.0195313 0.9140625,0 1.3359375,0.8085938 1.3359375,1.6289063 0,0.796875 -0.4921875,1.5820312 -1.0429687,2.203125 L 0.60939844,-0.36421875 C 0.50392969,-0.25875 0.50392969,-0.2353125 0.50392969,-9.375e-4 H 4.1953359 l 0.28125,-1.734375 H 4.2187734 c -0.046875,0.3046875 -0.1171875,0.73828125 -0.2109375,0.890625 -0.070312,0.0820313 -0.7265625,0.0820313 -0.9492187,0.0820313 z m 0,0"
       style="fill:#ff0000;fill-opacity:1;fill-rule:nonzero;stroke:none"
       aria-label="2"
       transform="matrix(1.3333333,0,0,1.3333333,173.832,95.22)" />
    <path
       id="path62"
       d="m 4.4765859,-2.0042266 c 0,-1.1835937 -0.8203125,-2.1796875 -1.8984375,-2.1796875 -0.4804687,0 -0.9023437,0.1640625 -1.265625,0.5039063 v -1.9335938 c 0.1992188,0.058594 0.5273438,0.1289063 0.84375,0.1289063 1.2304688,0 1.9335938,-0.9140625 1.9335938,-1.0429688 0,-0.058594 -0.035156,-0.1054687 -0.1054688,-0.1054687 -0.011719,0 -0.035156,0 -0.082031,0.023437 -0.1992188,0.09375 -0.6796875,0.2929687 -1.3476563,0.2929687 -0.3984375,0 -0.8554687,-0.070312 -1.3242187,-0.28125 -0.082031,-0.023437 -0.1054688,-0.023437 -0.1289063,-0.023437 -0.09375,0 -0.09375,0.082031 -0.09375,0.234375 v 2.953125 c 0,0.1757813 0,0.2578125 0.140625,0.2578125 0.070312,0 0.082031,-0.035156 0.1289063,-0.09375 0.1054687,-0.1523437 0.4804687,-0.6914062 1.2773437,-0.6914062 0.5273438,0 0.7734375,0.4570312 0.8554688,0.6328125 0.1523437,0.375 0.1757812,0.7617187 0.1757812,1.2539062 0,0.3515625 0,0.9492188 -0.234375,1.37109379 -0.2460937,0.38671875 -0.609375,0.64453125 -1.0664062,0.64453125 -0.7265625,0 -1.30078126,-0.52734375 -1.46484376,-1.11328124 0.0234375,0.011719 0.0585938,0.011719 0.1640625,0.011719 0.32812496,0 0.50390626,-0.2460937 0.50390626,-0.4804687 0,-0.2460938 -0.1757813,-0.4921875 -0.50390626,-0.4921875 -0.140625,0 -0.48046875,0.070312 -0.48046875,0.5273437 0,0.85546879 0.67968751,1.82812504 1.79296871,1.82812504 1.1601563,0 2.1796875,-0.9609375 2.1796873,-2.22656284 z m 0,0"
       style="fill:#ff0000;fill-opacity:1;fill-rule:nonzero;stroke:none"
       aria-label="5"
       transform="matrix(1.3333333,0,0,1.3333333,173.832,19.629333)" />
    <path
       id="path63"
       d="m 0.59622656,-9.7965078 v 0.421875 h 0.29296875 c 1.03124999,0 1.07812499,0.140625 1.07812499,0.6679687 v 7.6171875 c 0,0.52734379 -0.046875,0.67968754 -1.07812499,0.67968754 H 0.59622656 V 3.671875e-4 H 5.6235703 c 2.390625,0 4.3125,-2.1562499875 4.3125,-4.8046874875 0,-2.765625 -1.9335937,-4.9921875 -4.3125,-4.9921875 z m 3.16406254,9.38671874 c -0.6328125,0 -0.6679688,-0.10546875 -0.6679688,-0.57421875 V -8.8121328 c 0,-0.46875 0.035156,-0.5625 0.6679688,-0.5625 h 1.5 c 1.1953125,0 2.1445312,0.5625 2.7304687,1.5117187 0.6445313,1.0195313 0.6445313,2.4726563 0.6445313,3.046875 0,0.796875 -0.011719,2.1445313 -0.8320313,3.2109375 -0.4804687,0.5976563 -1.3359375,1.19531254 -2.5429687,1.19531254 z M 17.043492,-2.4136953 h -0.316406 c -0.04687,0.2460937 -0.164063,1.03125 -0.304688,1.265625 -0.105468,0.1289062 -0.914062,0.1289062 -1.347656,0.1289062 h -2.660156 c 0.386719,-0.328125 1.265625,-1.2421875 1.640625,-1.59375 2.179687,-2.0039062 2.988281,-2.7539062 2.988281,-4.171875 0,-1.6523437 -1.3125,-2.7539062 -2.976562,-2.7539062 -1.664063,0 -2.636719,1.4179687 -2.636719,2.6484375 0,0.7382812 0.632812,0.7382812 0.679687,0.7382812 0.292969,0 0.667969,-0.2109375 0.667969,-0.6796875 0,-0.3984375 -0.269531,-0.6679687 -0.667969,-0.6679687 -0.140625,0 -0.164062,0 -0.210937,0.011719 0.28125,-0.9726562 1.054687,-1.6289062 1.980469,-1.6289062 1.21875,0 1.96875,1.0078125 1.96875,2.3320312 0,1.21875 -0.703125,2.2851563 -1.523438,3.1992188 l -2.894531,3.24609374 V 3.671875e-4 h 5.238281 z m 7.939453,2.33203124 c 1.546875,-0.6796875 2.90625,-2.47265624 2.90625,-4.78125004 0,-2.9648437 -2.179687,-5.2382809 -4.675781,-5.2382809 -2.554687,0 -4.6875,2.2968747 -4.6875,5.2382809 0,2.8828125 2.121094,5.16796879 4.6875,5.16796879 0.480469,0 0.960938,-0.09375 1.347656,-0.22265625 0.234375,1.46484376 0.421875,2.69531246 1.710938,2.69531246 1.675781,0 1.6875,-2.50781246 1.6875,-2.63671871 0,-0.1406250025 0,-0.26953125 -0.140625,-0.26953125 -0.117188,0 -0.117188,0.10546875 -0.128906,0.19921875 -0.09375,1.03125001 -0.796875,1.38281251 -1.300782,1.38281251 -0.738281,0 -1.066406,-0.53906251 -1.40625,-1.53515626 z m -2.660156,-0.09375 c -1.054687,-0.375 -2.496094,-1.60546874 -2.496094,-4.69921874 0,-3.5742188 1.945313,-4.9101563 3.375,-4.9101563 1.511719,0 3.386719,1.3828125 3.386719,4.9101563 0,2.0507812 -0.632812,3.5273437 -1.78125,4.32421874 -0.246094,-0.71484374 -0.644531,-1.55859374 -1.570312,-1.55859374 -0.726563,0 -1.136719,0.6210937 -1.136719,1.20703124 0,0.38671875 0.199219,0.69140625 0.222656,0.7265625 z m 2.167969,-0.1640625 c -0.421875,0.22265625 -0.890625,0.328125 -1.277344,0.328125 -0.609375,0 -0.832031,-0.5625 -0.832031,-0.90234375 0,-0.42187499 0.304687,-0.90234379 0.855469,-0.90234379 0.808593,0 1.101562,0.6679688 1.253906,1.47656254 z m 9.436523,-3.83203124 c 0,3.38671874 -1.511718,4.08984374 -2.367187,4.08984374 -0.339844,0 -1.101563,-0.046875 -1.464844,-0.55078125 H 30.189 c 0.09375,0.0351563 0.609375,-0.0585938 0.609375,-0.58593749 0,-0.3164063 -0.210937,-0.5859375 -0.585937,-0.5859375 -0.375,0 -0.597657,0.2460937 -0.597657,0.609375 0,0.89062499 0.714844,1.49999999 1.957032,1.49999999 1.792968,0 3.527343,-1.91015629 3.527343,-5.02734379 0,-3.8554687 -1.605468,-4.8164062 -2.859375,-4.8164062 -1.582031,0 -2.976562,1.3242187 -2.976562,3.2109375 0,1.8984375 1.335937,3.1875 2.765625,3.1875 1.066406,0 1.617187,-0.7734375 1.898437,-1.5117188 z m -1.839843,0.7382812 c -0.902344,0 -1.289063,-0.7265625 -1.417969,-0.9960937 -0.222656,-0.5507813 -0.222656,-1.2304688 -0.222656,-1.8867188 0,-0.796875 0,-1.4882812 0.363281,-2.0742187 0.257812,-0.3867188 0.644531,-0.8085938 1.429687,-0.8085938 0.808594,0 1.230469,0.7265625 1.371094,1.0546875 0.292969,0.703125 0.292969,1.921875 0.292969,2.1328125 0,1.2070313 -0.550781,2.578125 -1.816406,2.578125 z m 0,0"
       style="fill:#000000;fill-opacity:1;fill-rule:nonzero;stroke:none"
       aria-label="D2Q9"
       transform="matrix(1.3333333,0,0,1.3333333,69.748,225.53467)" />
  </g>
</svg>
